<svg xmlns="http://www.w3.org/2000/svg" width="800" height="480" viewBox="0 0 800 480">
  <defs>
    <linearGradient id="bg" x1="0" y1="0" x2="1" y2="1">
      <stop offset="0" stop-color="#ECFDF5"/>
      <stop offset="1" stop-color="#EFF6FF"/>
    </linearGradient>
    <linearGradient id="pan" x1="0" y1="0" x2="1" y2="0">
      <stop offset="0" stop-color="#111827"/>
      <stop offset="1" stop-color="#374151"/>
    </linearGradient>
  </defs>
  <rect width="800" height="480" rx="32" fill="url(#bg)"/>
  <ellipse cx="400" cy="285" rx="210" ry="120" fill="url(#pan)"/>
  <ellipse cx="400" cy="275" rx="175" ry="95" fill="#1F2937"/>
  <ellipse cx="400" cy="275" rx="155" ry="80" fill="#DC2626"/>
  <g fill="#FCD34D" opacity="0.9">
    <circle cx="345" cy="260" r="14"/>
    <circle cx="415" cy="250" r="12"/>
    <circle cx="465" cy="280" r="13"/>
    <circle cx="395" cy="295" r="11"/>
  </g>
  <path d="M315 310c30-40 70-50 95-26 24 23 58 15 90-22" fill="none" stroke="#22C55E" stroke-width="10" stroke-linecap="round"/>
  <!-- handles -->
  <path d="M185 285c-35 0-55-15-55-35s20-35 55-35" fill="none" stroke="#111827" stroke-width="18" stroke-linecap="round"/>
  <path d="M615 215c35 0 55 15 55 35s-20 35-55 35" fill="none" stroke="#111827" stroke-width="18" stroke-linecap="round"/>
  <rect x="40" y="36" rx="18" ry="18" width="250" height="56" fill="#111827" opacity="0.88"/>
  <text x="62" y="74" font-family="Arial, Helvetica, sans-serif" font-size="26" fill="#FFFFFF" font-weight="700">Chicken Karahi</text>
</svg>

