<svg xmlns="http://www.w3.org/2000/svg" width="800" height="480" viewBox="0 0 800 480">
  <defs>
    <linearGradient id="bg" x1="0" y1="0" x2="1" y2="1">
      <stop offset="0" stop-color="#EFF6FF"/>
      <stop offset="1" stop-color="#ECFDF5"/>
    </linearGradient>
    <linearGradient id="bag" x1="0" y1="0" x2="0" y2="1">
      <stop offset="0" stop-color="#22C55E"/>
      <stop offset="1" stop-color="#16A34A"/>
    </linearGradient>
  </defs>
  <rect width="800" height="480" rx="32" fill="url(#bg)"/>
  <path d="M280 190c0-66 48-110 120-110s120 44 120 110" fill="none" stroke="#14532D" stroke-width="18" stroke-linecap="round"/>
  <rect x="260" y="190" width="280" height="230" rx="26" fill="url(#bag)"/>
  <rect x="285" y="220" width="230" height="160" rx="18" fill="#DCFCE7" opacity="0.95"/>
  <!-- items -->
  <circle cx="340" cy="270" r="26" fill="#EF4444"/>
  <circle cx="465" cy="270" r="22" fill="#F59E0B"/>
  <rect x="368" y="250" width="70" height="44" rx="10" fill="#3B82F6"/>
  <path d="M330 320c30-26 60-26 90 0" fill="none" stroke="#22C55E" stroke-width="10" stroke-linecap="round"/>
  <rect x="40" y="36" rx="18" ry="18" width="260" height="56" fill="#111827" opacity="0.88"/>
  <text x="62" y="74" font-family="Arial, Helvetica, sans-serif" font-size="26" fill="#FFFFFF" font-weight="700">Grocery</text>
</svg>

