<svg xmlns="http://www.w3.org/2000/svg" width="800" height="480" viewBox="0 0 800 480">
  <defs>
    <linearGradient id="bg" x1="0" y1="0" x2="1" y2="1">
      <stop offset="0" stop-color="#FDF2F8"/>
      <stop offset="1" stop-color="#EFF6FF"/>
    </linearGradient>
  </defs>
  <rect width="800" height="480" rx="32" fill="url(#bg)"/>
  <!-- scissors -->
  <circle cx="330" cy="270" r="44" fill="#111827" opacity="0.92"/>
  <circle cx="470" cy="270" r="44" fill="#111827" opacity="0.92"/>
  <path d="M358 248l160-120" stroke="#111827" stroke-width="16" stroke-linecap="round"/>
  <path d="M358 292l160 120" stroke="#111827" stroke-width="16" stroke-linecap="round"/>
  <path d="M360 270h160" stroke="#6B7280" stroke-width="10" stroke-linecap="round" opacity="0.8"/>
  <!-- comb -->
  <rect x="300" y="360" width="240" height="28" rx="14" fill="#374151"/>
  <g fill="#6B7280">
    <rect x="315" y="332" width="10" height="40" rx="5"/>
    <rect x="340" y="332" width="10" height="40" rx="5"/>
    <rect x="365" y="332" width="10" height="40" rx="5"/>
    <rect x="390" y="332" width="10" height="40" rx="5"/>
    <rect x="415" y="332" width="10" height="40" rx="5"/>
    <rect x="440" y="332" width="10" height="40" rx="5"/>
    <rect x="465" y="332" width="10" height="40" rx="5"/>
    <rect x="490" y="332" width="10" height="40" rx="5"/>
    <rect x="515" y="332" width="10" height="40" rx="5"/>
  </g>
  <rect x="40" y="36" rx="18" ry="18" width="260" height="56" fill="#111827" opacity="0.88"/>
  <text x="62" y="74" font-family="Arial, Helvetica, sans-serif" font-size="26" fill="#FFFFFF" font-weight="700">Haircut</text>
</svg>

